<svg width="220" height="175" viewBox="0 0 220 175" fill="none" xmlns="http://www.w3.org/2000/svg">
<path d="M220 110C220 92.6409 215.892 75.5282 208.011 60.061C200.13 44.5939 188.7 31.2116 174.656 21.0081C160.613 10.8047 144.353 4.06985 127.208 1.35428C110.062 -1.36129 92.5177 0.0195135 76.0081 5.38378C59.4986 10.7481 44.493 19.9435 32.2183 32.2183C19.9435 44.493 10.748 59.4986 5.38378 76.0081C0.0195112 92.5177 -1.36129 110.062 1.35428 127.208C4.06985 144.353 10.8047 160.613 21.0081 174.656L47.7057 155.259C40.5633 145.429 35.8489 134.047 33.948 122.045C32.0471 110.044 33.0137 97.7624 36.7686 86.2057C40.5236 74.649 46.9604 64.1451 55.5528 55.5528C64.1451 46.9604 74.649 40.5236 86.2057 36.7687C97.7624 33.0137 110.044 32.0471 122.045 33.948C134.047 35.8489 145.429 40.5633 155.259 47.7057C165.09 54.8481 173.091 64.2158 178.607 75.0427C184.124 85.8697 187 97.8486 187 110H220Z" fill="#70E9AF"/>
</svg>
